#!OML:ASF F:\VICON\USERDATA\INSTALL\rory3\rory3.ASF
:FULLY-SPECIFIED
:DEGREES
281
root 0.604027 16.889 4.48945 9.51868 -4.9521 2.55954
lowerback -5.35482 2.26393 -1.42932
upperback -5.06679 3.01527 -3.70696
thorax -2.09842 1.48891 -2.91501
lowerneck -15.9839 -0.373399 -1.32971
upperneck 42.4171 -0.816325 1.79475
head 18.8153 -0.290289 0.941338
rclavicle 7.15625e-015 6.36111e-015
rhumerus -43.4046 -14.0172 -74.6738
rradius 24.0642
rwrist -5.61258
rhand -0.585423 10.6867
rfingers 7.12502
rthumb 25.0295 -17.6935
lclavicle 7.15625e-015 6.36111e-015
lhumerus -45.885 30.788 52.2411
lradius 32.8975
lwrist 0.321893
lhand -0.377971 22.044
lfingers 7.12502
lthumb 25.2283 50.3962
rfemur -14.7719 2.76463 19.1526
rtibia 57.5187
rfoot 1.96414 -8.65842
rtoes -18.9282
lfemur -26.2612 -6.92569 -25.4373
ltibia 29.6815
lfoot -17.6844 16.4011
ltoes -0.543647
282
root 0.611279 16.8906 4.61139 9.44785 -5.05434 2.44787
lowerback -5.21735 2.21934 -1.41516
upperback -5.0299 2.95312 -3.58777
thorax -2.14418 1.45913 -2.80664
lowerneck -16.0427 -0.309771 -1.41055
upperneck 42.5117 -0.708321 1.84082
head 18.8888 -0.255538 1.00149
rclavicle 2.93207e-014 1.03368e-014
rhumerus -43.1798 -13.3936 -75.0223
rradius 23.9135
rwrist -5.76571
rhand 0.0110949 10.2719
rfingers 7.12502
rthumb 25.601 -18.0273
lclavicle 2.93207e-014 1.03368e-014
lhumerus -45.1182 30.5743 53.1267
lradius 33.8209
lwrist 0.519757
lhand -0.092701 22.303
lfingers 7.12502
lthumb 25.5016 50.6165
rfemur -16.1753 2.41831 19.2489
rtibia 58.7784
rfoot 1.82619 -8.55006
rtoes -17.0501
lfemur -25.6638 -6.91714 -25.4783
ltibia 29.7262
lfoot -18.2209 16.446
ltoes -0.589529
283
root 0.621936 16.8937 4.72661 9.518 -4.87857 2.39943
lowerback -4.97047 2.12189 -1.42458
upperback -5.25023 2.80826 -3.48569
thorax -2.52153 1.38699 -2.7186
lowerneck -15.5573 -0.279825 -1.36798
upperneck 42.5614 -0.641196 1.74311
head 18.7808 -0.23768 0.958647
rclavicle 2.8128e-014 -5.56597e-015
rhumerus -43.5773 -13.1634 -74.861
rradius 23.687
rwrist -5.49908
rhand 0.303515 11.1526
rfingers 7.12502
rthumb 25.8811 -17.1061
lclavicle 2.8128e-014 -5.56597e-015
lhumerus -44.6459 29.887 53.9133
lradius 34.6614
lwrist 0.793641
lhand 0.0861541 22.3909
lfingers 7.12502
lthumb 25.6729 50.6798
rfemur -17.6193 1.85681 19.2745
rtibia 59.8525
rfoot -0.213548 -8.56633
rtoes -21.3677
lfemur -25.2638 -7.06736 -25.5791
ltibia 29.786
lfoot -17.9112 17.0832
ltoes -1.03278
284
root 0.633346 16.8919 4.84786 9.54402 -4.71059 2.44981
lowerback -4.7629 2.01884 -1.49968
upperback -5.2866 2.66525 -3.43116
thorax -2.68631 1.31819 -2.63399
lowerneck -15.674 -0.227122 -1.17786
upperneck 42.5972 -0.539888 1.54182
head 18.8313 -0.194528 0.848171
rclavicle 1.10325e-014 -9.54166e-015
rhumerus -43.7114 -13.0356 -74.8136
rradius 23.6381
rwrist -5.12642
rhand 0.512546 12.1633
rfingers 7.12502
rthumb 26.0812 -16.066
lclavicle 1.10325e-014 -9.54166e-015
lhumerus -43.9583 29.116 54.9367
lradius 35.7356
lwrist 1.11685
lhand 0.10064 22.1759
lfingers 7.12502
lthumb 25.6868 50.4627
rfemur -18.8485 1.32002 19.2012
rtibia 60.7648
rfoot 0.046476 -8.61649
rtoes -14.0385
lfemur -24.8617 -7.5739 -25.732
ltibia 29.849
lfoot -18.2479 17.4844
ltoes 1.28267
285
root 0.638731 16.8919 4.97219 9.49573 -4.57776 2.30103
lowerback -5.07565 1.90256 -1.38212
upperback -4.97478 2.53071 -3.28812
thorax -2.19288 1.25133 -2.53359
lowerneck -15.8466 -0.151955 -1.20048
upperneck 42.4609 -0.378407 1.46556
head 18.7898 -0.14479 0.846023
rclavicle 9.69075e-015 -1.98785e-014
rhumerus -43.1722 -12.6154 -75.1719
rradius 23.6419
rwrist -5.26673
rhand 0.599524 12.1403
rfingers 7.12502
rthumb 26.1645 -16.0767
lclavicle 9.69075e-015 -1.98785e-014
lhumerus -42.9169 28.8192 56.0543
lradius 36.7861
lwrist 1.18006
lhand 0.0721917 21.4926
lfingers 7.12502
lthumb 25.6595 49.7834
rfemur -20.0489 0.847438 19.4124
rtibia 61.4909
rfoot -1.74559 -9.27417
rtoes -19.8391
lfemur -24.4154 -8.11468 -25.6318
ltibia 29.9856
lfoot -19.2354 17.3901
ltoes 4.92584
286
root 0.643094 16.8915 5.09328 9.56194 -4.38208 2.05921
lowerback -5.22551 1.81939 -1.18021
upperback -4.92945 2.42136 -3.16648
thorax -2.06232 1.19322 -2.51772
lowerneck -15.6908 -0.100227 -1.07748
upperneck 42.3789 -0.302865 1.36957
head 18.6925 -0.108219 0.790592
rclavicle 2.54444e-014 -2.3059e-014
rhumerus -43.0132 -12.5607 -75.2147
rradius 23.4216
rwrist -5.17009
rhand 0.688229 12.0889
rfingers 7.12502
rthumb 26.2494 -16.1155
lclavicle 2.54444e-014 -2.3059e-014
lhumerus -42.0629 28.4542 56.893
lradius 37.5962
lwrist 1.00512
lhand -0.00300825 20.4924
lfingers 7.12502
lthumb 25.5875 48.7935
rfemur -21.4182 0.4207 19.7597
rtibia 62.0457
rfoot -2.02023 -10.0304
rtoes -16.6731
lfemur -24.1652 -8.65637 -25.432
ltibia 30.2281
lfoot -20.0154 17.4773
ltoes 6.6472
